{"title":"The Back-Up Plan DVDSCR XViD AC3 - IMAGiNE","uid":5505509,"size":1502499017,"categoryP":"video","categoryS":"movies","magnet":"?xt=urn:btih:ea36b28f6af61dd69db7d21f3d6fea0f9b1d7826&amp;dn=The+Back-Up+Plan+DVDSCR+XViD+AC3+-+IMAGiNE&amp;tr=udp%3A%2F%2Ftracker.openbittorrent.com%3A80&amp;tr=udp%3A%2F%2Fopen.demonii.com%3A1337&amp;tr=udp%3A%2F%2Ftracker.coppersurfer.tk%3A6969&amp;tr=udp%3A%2F%2Fexodus.desync.com%3A6969","seeders":1,"leechers":0,"uploader":"IwannaFan2","files":3,"time":1271787513,"description":"Filename:\nThe Back-Up Plan DVDSCR XViD AC3 - IMAGiNE\n &lt;a href=&quot;\nhttp://www.imdb.com/title/tt1212436/&quot; rel=&quot;nofollow&quot; target=&quot;_NEW&quot;&gt;\nhttp://www.imdb.com/title/tt1212436/&lt;/a&gt;\n\nDETAILS:\n\nVideo\nID                               : 0\nFormat                           : MPEG-4 Visual\nFormat profile                   : Advanced Simple@L5\nFormat settings, BVOP            : Yes\nFormat settings, QPel            : No\nFormat settings, GMC             : No warppoints\nFormat settings, Matrix          : Default (MPEG)\nMuxing mode                      : Packed bitstream\nCodec ID                         : XVID\nCodec ID/Hint                    : XviD\nDuration                         : 1h 44mn\nBit rate                         : 1 619 Kbps\nWidth                            : 704 pixels\nHeight                           : 304 pixels\nDisplay aspect ratio             : 2.35\nFrame rate                       : 23.976 fps\nResolution                       : 24 bits\nColorimetry                      : 4:2:0\nScan type                        : Progressive\nBits/(Pixel*Frame)               : 0.316\nStream size                      : 1.18 GiB (86%)\nWriting library                  : XviD 1.2.1 (UTC 2008-12-04)\n\nAudio\nID                               : 1\nFormat                           : AC-3\nFormat/Info                      : Audio Coding 3\nCodec ID                         : 2000\nDuration                         : 1h 44mn\nBit rate mode                    : Constant\nBit rate                         : 256 Kbps\nChannel(s)                       : 2 channels\nChannel positions                : L R\nSampling rate                    : 48.0 KHz\nStream size                      : 191 MiB (14%)\nAlignment                        : Aligned on interleaves\nInterleave, duration             : 42 ms (1.00 video frame)\nInterleave, preload duration     : 512 ms\n\n\n\nNOTES:\n\nIMAGiNE bringing you another release.....The Back-Up Plan\nOnce more thanks to polo2268 for the source\nAnyway we decided to to a rip in the end and we know there's a few out already so take ya pick.\nWell we used the same script as we did for our dvdr release but ad to slightly change it due to crop and resize\netc....\nThe audio yet again is untouched.\n","torrent":{"xt":"urn:btih:ea36b28f6af61dd69db7d21f3d6fea0f9b1d7826","amp;dn":"The+Back-Up+Plan+DVDSCR+XViD+AC3+-+IMAGiNE","amp;tr":["udp%3A%2F%2Ftracker.openbittorrent.com%3A80","udp%3A%2F%2Fopen.demonii.com%3A1337","udp%3A%2F%2Ftracker.coppersurfer.tk%3A6969","udp%3A%2F%2Fexodus.desync.com%3A6969"],"infoHash":"ea36b28f6af61dd69db7d21f3d6fea0f9b1d7826","infoHashBuffer":{"type":"Buffer","data":[234,54,178,143,106,246,29,214,157,183,210,31,61,111,234,15,155,29,120,38]},"announce":[],"urlList":[]}}